<svg xmlns="http://www.w3.org/2000/svg" width="512" height="512" viewBox="0 0 512 512" fill="none"><rect width="512" height="512" fill="#428DFF"></rect><rect width="512" height="512" fill="white" fill-opacity="0.8"></rect><g clip-path="url(#clip0_62_698)"><path d="M141.953 262.386H269.519C275.626 262.386 281.451 264.952 285.574 269.458L304.693 290.36" stroke="#428DFF" stroke-width="10.3856" stroke-miterlimit="10" stroke-linecap="round" stroke-linejoin="round"></path><path d="M366.906 341.705H145.063C142.456 341.705 140.343 339.591 140.343 336.984V320.52C140.343 317.912 142.456 315.799 145.063 315.799H366.906C369.513 315.799 371.627 317.912 371.627 320.52V336.984C371.627 339.591 369.513 341.705 366.906 341.705Z" stroke="black" stroke-width="10.3856" stroke-miterlimit="10" stroke-linecap="round" stroke-linejoin="round"></path><path d="M256.606 237.084H140.343V198.703H241.07C243.335 198.703 245.436 199.88 246.618 201.811L262.154 227.18C264.809 231.515 261.689 237.084 256.606 237.084Z" stroke="black" stroke-width="10.3856" stroke-miterlimit="10" stroke-linecap="round" stroke-linejoin="round"></path><path d="M347.529 198.702H296.844C291.761 198.702 288.641 204.271 291.296 208.606L306.832 233.975C308.015 235.906 310.116 237.083 312.38 237.083H368.724" stroke="#428DFF" stroke-width="10.3856" stroke-miterlimit="10" stroke-linecap="round" stroke-linejoin="round"></path><path d="M177.73 315.798C167.07 315.798 158.429 307.157 158.429 296.497V290.359H197.031V296.497C197.031 307.157 188.39 315.798 177.73 315.798Z" stroke="black" stroke-width="10.3856" stroke-miterlimit="10" stroke-linecap="round" stroke-linejoin="round"></path><path d="M246.583 315.798C235.923 315.798 227.281 307.157 227.281 296.497V290.359H265.884V296.497C265.884 307.157 257.243 315.798 246.583 315.798Z" stroke="black" stroke-width="10.3856" stroke-miterlimit="10" stroke-linecap="round" stroke-linejoin="round"></path><path d="M315.435 315.798C304.776 315.798 296.134 307.157 296.134 296.497V290.359H334.737V296.497C334.737 307.157 326.095 315.798 315.435 315.798Z" stroke="black" stroke-width="10.3856" stroke-miterlimit="10" stroke-linecap="round" stroke-linejoin="round"></path><path d="M327.773 182.831C313.998 174.681 298.287 170.376 282.281 170.367L149.745 170.297C144.552 170.297 140.343 174.506 140.343 179.699V280.958C140.343 286.15 144.552 290.359 149.745 290.359H341.15C357.987 290.359 371.641 276.72 371.658 259.883C371.69 228.244 355.002 198.943 327.773 182.831Z" stroke="black" stroke-width="10.3856" stroke-miterlimit="10" stroke-linecap="round" stroke-linejoin="round"></path></g><defs><clipPath id="clip0_62_698"><rect width="241.701" height="241.701" fill="white" transform="translate(135.149 135.15)"></rect></clipPath></defs></svg>