<svg xmlns="http://www.w3.org/2000/svg" width="512" height="512" viewBox="0 0 512 512" fill="none"><rect width="512" height="512" fill="#428DFF"></rect><rect width="512" height="512" fill="white" fill-opacity="0.8"></rect><g clip-path="url(#clip0_62_701)"><path d="M372.457 212.193H139.542V299.808H372.457V212.193Z" stroke="#428DFF" stroke-width="10.631" stroke-miterlimit="10" stroke-linecap="round" stroke-linejoin="round"></path><path d="M294.568 183.199H338.192" stroke="black" stroke-width="10.631" stroke-miterlimit="10" stroke-linecap="round" stroke-linejoin="round"></path><path d="M294.568 328.801H338.192" stroke="black" stroke-width="10.631" stroke-miterlimit="10" stroke-linecap="round" stroke-linejoin="round"></path><path d="M316.381 183.199V328.801" stroke="black" stroke-width="10.631" stroke-miterlimit="10" stroke-linecap="round" stroke-linejoin="round"></path><path d="M172.499 260.748H164.295V254.607H172.499C173.617 254.607 174.524 254.418 175.219 254.04C175.914 253.662 176.42 253.141 176.737 252.476C177.07 251.796 177.236 251.033 177.236 250.187C177.236 249.281 177.07 248.442 176.737 247.672C176.42 246.901 175.914 246.281 175.219 245.813C174.524 245.33 173.617 245.088 172.499 245.088H167.287V271.944H159.332V238.946H172.499C175.143 238.946 177.417 239.429 179.321 240.396C181.24 241.363 182.713 242.693 183.74 244.385C184.768 246.062 185.282 247.981 185.282 250.142C185.282 252.272 184.768 254.131 183.74 255.717C182.713 257.304 181.24 258.543 179.321 259.434C177.417 260.31 175.143 260.748 172.499 260.748ZM217.124 238.946V271.944H209.192L197.52 251.411V271.944H189.565V238.946H197.52L209.192 259.479V238.946H217.124ZM222.155 238.946H235.142C237.68 238.946 239.886 239.324 241.76 240.079C243.633 240.835 245.076 241.953 246.088 243.433C247.116 244.914 247.629 246.742 247.629 248.918C247.629 250.807 247.335 252.386 246.746 253.655C246.156 254.924 245.333 255.974 244.275 256.805C243.233 257.621 242.016 258.293 240.626 258.822L238.02 260.295H227.119L227.073 254.153H235.142C236.154 254.153 236.993 253.972 237.657 253.609C238.322 253.247 238.821 252.733 239.153 252.068C239.501 251.388 239.674 250.58 239.674 249.643C239.674 248.691 239.501 247.875 239.153 247.196C238.806 246.516 238.292 245.994 237.612 245.632C236.947 245.269 236.124 245.088 235.142 245.088H230.11V271.944H222.155V238.946ZM240.218 271.944L232.921 257.349L241.352 257.304L248.74 271.604V271.944H240.218Z" fill="black"></path></g><defs><clipPath id="clip0_62_701"><rect width="243.546" height="243.546" fill="white" transform="translate(134.227 134.227)"></rect></clipPath></defs></svg>