<svg xmlns="http://www.w3.org/2000/svg" width="512" height="512" viewBox="0 0 512 512" fill="none"><rect width="512" height="512" fill="#428DFF"></rect><rect width="512" height="512" fill="white" fill-opacity="0.8"></rect><g clip-path="url(#clip0_62_716)"><path d="M237.285 333.266H293.861C297.651 333.266 301.356 332.144 304.509 330.042L349.829 299.828C359.16 293.607 371.659 300.296 371.659 311.512C371.659 316.119 369.398 320.434 365.61 323.056L316.666 356.94C311.851 360.274 306.133 362.06 300.277 362.06H246.883" stroke="black" stroke-width="10.3856" stroke-miterlimit="10" stroke-linecap="round" stroke-linejoin="round"></path><path d="M246.882 362.06H179.695V304.471L192.485 296.797C199.817 292.398 208.208 290.074 216.759 290.074C226.967 290.074 236.9 293.385 245.066 299.51L251.682 304.471H290.074C298.026 304.471 304.472 310.917 304.472 318.869C304.472 326.82 298.026 333.266 290.074 333.266H237.284" stroke="black" stroke-width="10.3856" stroke-miterlimit="10" stroke-linecap="round" stroke-linejoin="round"></path><path d="M179.695 285.274H140.343V371.658H179.695V285.274Z" stroke="#428DFF" stroke-width="10.3856" stroke-miterlimit="10" stroke-linecap="round" stroke-linejoin="round"></path><path d="M279.41 230.46C300.026 209.845 300.026 176.42 279.41 155.805C258.794 135.189 225.37 135.189 204.755 155.805C184.139 176.42 184.139 209.845 204.755 230.46C225.37 251.076 258.794 251.076 279.41 230.46Z" stroke="black" stroke-width="10.3856" stroke-miterlimit="10" stroke-linecap="round" stroke-linejoin="round"></path><path d="M242.083 169.137V161.938" stroke="#428DFF" stroke-width="10.3856" stroke-miterlimit="10" stroke-linecap="round" stroke-linejoin="round"></path><path d="M242.083 217.127V224.326" stroke="#428DFF" stroke-width="10.3856" stroke-miterlimit="10" stroke-linecap="round" stroke-linejoin="round"></path><path d="M253.84 178.735C252.728 173.259 247.889 169.137 242.085 169.137C235.458 169.137 230.087 174.508 230.087 181.134C230.087 187.76 235.458 193.132 242.085 193.132" stroke="#428DFF" stroke-width="10.3856" stroke-miterlimit="10" stroke-linecap="round" stroke-linejoin="round"></path><path d="M242.084 193.132C248.71 193.132 254.081 198.504 254.081 205.13C254.081 211.756 248.71 217.128 242.084 217.128C236.279 217.128 231.44 213.006 230.328 207.53" stroke="#428DFF" stroke-width="10.3856" stroke-miterlimit="10" stroke-linecap="round" stroke-linejoin="round"></path><path d="M355.435 233.045C344.778 180.17 298.099 140.342 242.083 140.342C269.144 140.342 291.444 160.704 294.509 186.942C309.434 198.32 320.557 214.434 325.657 233.045H309.27L340.464 270.478L371.658 233.045H355.435Z" stroke="black" stroke-width="10.3856" stroke-miterlimit="10" stroke-linecap="round" stroke-linejoin="round"></path></g><defs><clipPath id="clip0_62_716"><rect width="241.701" height="241.701" fill="white" transform="translate(135.149 135.15)"></rect></clipPath></defs></svg>