<svg xmlns="http://www.w3.org/2000/svg" width="512" height="512" viewBox="0 0 512 512" fill="none"><rect width="512" height="512" fill="#428DFF"></rect><rect width="512" height="512" fill="white" fill-opacity="0.8"></rect><g clip-path="url(#clip0_62_719)"><path d="M256.001 327.93C231.599 327.93 211.818 308.149 211.818 283.748V251.331C211.818 226.93 231.6 207.148 256.001 207.148C280.401 207.148 300.183 226.93 300.183 251.331V283.748C300.183 308.149 280.401 327.93 256.001 327.93Z" stroke="black" stroke-width="10.3856" stroke-miterlimit="10" stroke-linecap="round" stroke-linejoin="round"></path><path d="M183.158 256V251.331C183.158 211.102 215.77 178.49 255.999 178.49C296.228 178.49 328.84 211.102 328.84 251.331V256" stroke="black" stroke-width="10.3856" stroke-miterlimit="10" stroke-linecap="round" stroke-linejoin="round"></path><path d="M264.475 237.06C264.475 247.52 255.996 256 245.535 256H212.054" stroke="black" stroke-width="10.3856" stroke-miterlimit="10" stroke-linecap="round" stroke-linejoin="round"></path><path d="M262.81 244.832C265.776 251.416 272.396 256 280.086 256H299.947" stroke="black" stroke-width="10.3856" stroke-miterlimit="10" stroke-linecap="round" stroke-linejoin="round"></path><path d="M328.84 256H300.182V294.211H328.84V256Z" stroke="black" stroke-width="10.3856" stroke-miterlimit="10" stroke-linecap="round" stroke-linejoin="round"></path><path d="M183.16 294.211L211.818 294.211L211.818 256L183.16 256L183.16 294.211Z" stroke="black" stroke-width="10.3856" stroke-miterlimit="10" stroke-linecap="round" stroke-linejoin="round"></path><path d="M256 140.342C192.124 140.342 140.343 192.124 140.343 256C140.343 281.552 148.635 305.163 162.667 324.304L153.505 358.496L187.697 349.334C206.837 363.365 230.449 371.658 256 371.658C319.877 371.658 371.658 319.876 371.658 256C371.658 192.124 319.877 140.342 256 140.342Z" stroke="#428DFF" stroke-width="10.3856" stroke-miterlimit="10" stroke-linecap="round" stroke-linejoin="round"></path><path d="M256.236 301.652H277.561C290.055 301.652 300.182 291.525 300.182 279.031" stroke="black" stroke-width="10.3856" stroke-miterlimit="10" stroke-linecap="round" stroke-linejoin="round"></path></g><defs><clipPath id="clip0_62_719"><rect width="241.701" height="241.701" fill="white" transform="translate(135.149 135.149)"></rect></clipPath></defs></svg>