<svg xmlns="http://www.w3.org/2000/svg" width="512" height="512" viewBox="0 0 512 512" fill="none"><rect width="512" height="512" fill="#428DFF"></rect><rect width="512" height="512" fill="white" fill-opacity="0.8"></rect><g clip-path="url(#clip0_62_707)"><path d="M210.91 191.958H164.335V148.767H210.91L241.6 170.362L210.91 191.958Z" stroke="#005BCB" stroke-width="10.3856" stroke-miterlimit="10" stroke-linecap="round" stroke-linejoin="round"></path><path d="M301.085 191.958H347.66V148.767H301.085L270.395 170.362L301.085 191.958Z" stroke="#005BCB" stroke-width="10.3856" stroke-miterlimit="10" stroke-linecap="round" stroke-linejoin="round"></path><path d="M260.597 200.381H251.4C245.989 200.381 241.602 195.994 241.602 190.583V140.343H270.396V190.583C270.396 195.994 266.009 200.381 260.597 200.381Z" stroke="black" stroke-width="10.3856" stroke-miterlimit="10" stroke-linecap="round" stroke-linejoin="round"></path><path d="M142.538 285.382C141.43 280.089 140.692 274.679 140.342 269.168" stroke="black" stroke-width="10.3856" stroke-miterlimit="10" stroke-linecap="round" stroke-linejoin="round"></path><path d="M160.109 326.655C157.059 322.182 154.319 317.487 151.921 312.604" stroke="black" stroke-width="10.3856" stroke-miterlimit="10" stroke-linecap="round" stroke-linejoin="round"></path><path d="M142.679 237.349C143.831 231.948 145.352 226.704 147.221 221.63" stroke="black" stroke-width="10.3856" stroke-miterlimit="10" stroke-linecap="round" stroke-linejoin="round"></path><path d="M371.657 269.168C371.307 274.679 370.568 280.089 369.461 285.382" stroke="black" stroke-width="10.3856" stroke-miterlimit="10" stroke-linecap="round" stroke-linejoin="round"></path><path d="M360.079 312.604C357.681 317.487 354.941 322.182 351.892 326.655" stroke="black" stroke-width="10.3856" stroke-miterlimit="10" stroke-linecap="round" stroke-linejoin="round"></path><path d="M364.778 221.63C366.648 226.704 368.168 231.948 369.321 237.349" stroke="black" stroke-width="10.3856" stroke-miterlimit="10" stroke-linecap="round" stroke-linejoin="round"></path><path d="M255.997 371.658C203.034 334.498 204.781 283.818 204.781 283.818C204.781 255.535 227.709 232.602 255.997 232.602C284.285 232.602 307.212 255.535 307.212 283.818C307.212 283.818 308.959 334.498 255.997 371.658Z" stroke="#005BCB" stroke-width="10.3856" stroke-miterlimit="10" stroke-linecap="round" stroke-linejoin="round"></path><path d="M268.068 295.889C274.735 289.222 274.735 278.413 268.068 271.746C261.401 265.079 250.592 265.079 243.925 271.746C237.258 278.413 237.258 289.222 243.925 295.889C250.592 302.556 261.401 302.556 268.068 295.889Z" stroke="#005BCB" stroke-width="10.3856" stroke-miterlimit="10" stroke-linecap="round" stroke-linejoin="round"></path></g><defs><clipPath id="clip0_62_707"><rect width="241.701" height="241.701" fill="white" transform="translate(135.149 135.15)"></rect></clipPath></defs></svg>