<svg xmlns="http://www.w3.org/2000/svg" width="512" height="512" viewBox="0 0 512 512" fill="none"><rect width="512" height="512" fill="#428DFF"></rect><rect width="512" height="512" fill="white" fill-opacity="0.8"></rect><g clip-path="url(#clip0_62_713)"><path d="M302.464 177.567C302.464 170.445 300.197 163.851 296.346 158.469C292.703 162.112 288.1 164.678 283.056 165.726C268.129 168.828 256.912 182.056 256.912 197.903C256.912 201.638 257.537 205.228 258.685 208.574C262.056 209.761 265.678 210.416 269.451 210.432C287.582 210.512 302.464 195.697 302.464 177.567Z" stroke="#428DFF" stroke-width="10.383" stroke-miterlimit="10" stroke-linecap="round" stroke-linejoin="round"></path><path d="M259.098 208.39C261.593 200.344 267.705 193.89 275.533 190.927" stroke="#428DFF" stroke-width="10.383" stroke-miterlimit="10" stroke-linecap="round" stroke-linejoin="round"></path><path d="M215.913 180.852C215.913 174.441 217.953 168.507 221.419 163.662C224.699 166.941 228.842 169.25 233.382 170.193C246.817 172.986 256.912 184.891 256.912 199.154C256.912 202.517 256.35 205.748 255.317 208.76C252.282 209.828 249.022 210.417 245.626 210.432C229.308 210.504 215.913 197.17 215.913 180.852Z" stroke="#428DFF" stroke-width="10.383" stroke-miterlimit="10" stroke-linecap="round" stroke-linejoin="round"></path><path d="M254.944 208.594C252.698 201.353 247.197 195.543 240.151 192.877" stroke="#428DFF" stroke-width="10.383" stroke-miterlimit="10" stroke-linecap="round" stroke-linejoin="round"></path><path d="M309.209 329.738C336.502 302.446 336.502 258.195 309.209 230.902C281.916 203.609 237.666 203.609 210.373 230.902C183.08 258.195 183.08 302.446 210.373 329.738C237.666 357.031 281.916 357.031 309.209 329.738Z" stroke="black" stroke-width="10.383" stroke-miterlimit="10" stroke-linecap="round" stroke-linejoin="round"></path><path d="M359.994 353.532C353.158 353.532 347.788 347.68 348.374 340.869L354.691 267.433H371.657V341.869C371.658 348.31 366.436 353.532 359.994 353.532Z" stroke="black" stroke-width="10.383" stroke-miterlimit="10" stroke-linecap="round" stroke-linejoin="round"></path><path d="M354.908 267.433C350.221 267.433 346.42 263.633 346.42 258.945V218.686C346.42 201.089 356.125 184.925 371.657 176.653V267.433" stroke="black" stroke-width="10.383" stroke-miterlimit="10" stroke-linecap="round" stroke-linejoin="round"></path><path d="M152.126 238.619L146.697 335.32C146.225 343.741 152.926 350.829 161.36 350.829C169.793 350.829 176.495 343.741 176.022 335.32L170.596 238.656" stroke="black" stroke-width="10.383" stroke-miterlimit="10" stroke-linecap="round" stroke-linejoin="round"></path><path d="M140.398 179.356V224.797C140.398 232.296 146.478 238.375 153.977 238.375H168.744C176.243 238.375 182.322 232.296 182.322 224.797V179.356" stroke="black" stroke-width="10.383" stroke-miterlimit="10" stroke-linecap="round" stroke-linejoin="round"></path><path d="M140.337 215.425H182.431" stroke="black" stroke-width="10.383" stroke-miterlimit="10" stroke-linecap="round" stroke-linejoin="round"></path><path d="M161.36 215.462V179.356" stroke="black" stroke-width="10.383" stroke-miterlimit="10" stroke-linecap="round" stroke-linejoin="round"></path><path d="M292.117 312.645C309.969 294.793 309.969 265.849 292.117 247.997C274.264 230.145 245.321 230.145 227.469 247.997C209.616 265.849 209.616 294.793 227.469 312.645C245.321 330.497 274.264 330.497 292.117 312.645Z" stroke="black" stroke-width="10.383" stroke-miterlimit="10" stroke-linecap="round" stroke-linejoin="round"></path></g><defs><clipPath id="clip0_62_713"><rect width="241.701" height="241.701" fill="white" transform="translate(135.149 135.15)"></rect></clipPath></defs></svg>