<svg xmlns="http://www.w3.org/2000/svg" width="1732" height="224" viewBox="0 0 1732 224" fill="none"><path d="M295.849 8.39351C358.132 -0.689553 425.607 -15.6118 503.462 46.672C581.317 108.955 617 153.074 617 180.972C617 208.869 586.507 223.792 521.628 223.792C456.749 223.792 157.657 191.352 85.6406 179.025L229.024 172.537C231.402 172.537 236.16 170.98 236.16 164.751C236.16 158.523 230.105 157.398 227.077 157.615L28.5469 140.097L238.755 125.175C240.917 124.959 245.243 123.229 245.243 118.039C245.243 112.849 240.917 111.119 238.755 110.902L22.0591 101.17L272.492 75.8679C291.307 74.5704 296.368 96.2399 371.109 138.801C445.849 181.361 481.403 190.271 489.837 189.405C492 189.189 495.156 187.979 490.486 184.864C484.647 180.972 421.38 145.314 374.352 105.712C325.044 64.1891 314.015 43.4281 284.819 43.4281C269.766 43.4283 90.614 58.3506 0 65.4873C77.8549 49.4838 246.021 15.66 295.849 8.39351ZM411.333 27.8568C376.947 27.8568 354.239 35.6426 358.781 43.4281C363.323 51.2139 393.168 90.1406 448.964 97.9259C492.135 103.95 531.359 103.765 535.252 97.9259C539.144 92.087 532.657 83.653 495.676 57.7016C462.433 34.3737 438.583 27.8568 411.333 27.8568Z" fill="#005BCB"></path><path d="M844.863 179H795.74L788.853 142.732H716.408L704.564 179H660.766L690.883 86.4468C691.709 83.9677 692.352 81.3968 692.903 78.9177C693.454 76.4386 693.362 74.1431 692.811 71.8476C692.26 69.644 690.791 67.624 688.496 65.8794H857.442C863.41 65.8794 867.909 67.9913 870.756 72.3067C873.694 76.6222 874.153 81.8559 872.225 87.8241L861.482 120.787C859.921 125.837 856.891 130.336 852.484 134.284C848.076 138.233 843.21 140.803 837.885 142.089L844.863 179ZM807.309 123.358C809.972 123.358 812.543 122.256 815.113 120.144C817.684 118.032 819.429 115.553 820.255 112.891L826.132 94.8941C826.958 92.2314 826.774 90.0277 825.581 88.0995C824.295 86.1713 822.367 85.2532 819.704 85.2532H735.048L722.652 123.358H807.309Z" fill="#005BCB"></path><path d="M1010.6 179H879.295C873.51 179 869.195 176.888 866.44 172.756C863.686 168.624 863.318 163.666 865.155 157.882L869.837 143.65C871.674 137.865 875.346 132.815 880.764 128.683C886.273 124.552 891.874 122.532 897.658 122.532H986.998L988.651 117.573C989.202 115.737 989.11 114.176 988.192 112.799C987.365 111.421 985.988 110.779 984.152 110.779H881.957L887.65 93.1496H1017.57C1023.36 93.1496 1027.58 95.1696 1030.34 99.3014C1033.09 103.433 1033.55 108.483 1031.71 114.268L1010.6 179ZM974.419 161.371L981.305 140.253H919.603C917.767 140.253 915.93 140.895 914.186 142.181C912.441 143.558 911.248 145.119 910.697 146.955L908.218 154.576C907.575 156.413 907.759 157.974 908.677 159.351C909.503 160.728 910.88 161.371 912.717 161.371H974.419Z" fill="#005BCB"></path><path d="M1106.55 85.0695L1112.79 65.8794H1070.83L1064.58 85.0695H1106.55ZM1075.97 179H1034.01L1055.22 113.992C1056.05 111.421 1056.69 108.851 1057.24 106.28C1057.79 103.801 1057.79 101.413 1057.15 99.1178C1056.6 96.9141 1055.13 94.8941 1052.74 93.1496H1103.88L1075.97 179Z" fill="#005BCB"></path><path d="M1143.37 179H1101.86L1131.98 86.355C1132.81 83.8759 1133.45 81.3968 1134 78.9177C1134.55 76.4386 1134.55 74.0513 1133.91 71.7558C1133.36 69.5522 1131.89 67.624 1129.59 65.8794H1180.74L1143.37 179Z" fill="#005BCB"></path><path d="M1321.86 179H1203.32C1197.17 179 1192.03 177.439 1187.9 174.409C1183.77 171.379 1181.01 167.247 1179.63 162.105C1178.26 156.964 1178.53 151.271 1180.55 145.119L1195.33 99.8523C1197.35 93.6087 1200.66 87.9159 1205.43 82.7741C1210.21 77.6322 1215.63 73.5004 1221.69 70.4704C1227.84 67.4403 1233.9 65.8794 1240.14 65.8794H1358.68C1364.83 65.8794 1369.97 67.4403 1374.2 70.4704C1378.33 73.5004 1381.08 77.6322 1382.37 82.7741C1383.75 87.9159 1383.47 93.6087 1381.45 99.8523L1366.67 145.119C1364.65 151.271 1361.34 156.964 1356.66 162.105C1351.98 167.247 1346.56 171.379 1340.41 174.409C1334.26 177.439 1328.1 179 1321.86 179ZM1299.82 159.626C1304.87 159.626 1309.83 157.79 1314.61 154.209C1319.38 150.628 1322.6 146.221 1324.34 141.079L1336.46 103.801C1338.11 98.7505 1337.65 94.3432 1335.27 90.6705C1332.79 87.0895 1329.11 85.2532 1323.97 85.2532H1262.27C1257.22 85.2532 1252.26 87.0895 1247.4 90.6705C1242.62 94.3432 1239.41 98.7505 1237.75 103.801L1225.63 141.079C1223.89 146.221 1224.35 150.628 1226.83 154.209C1229.31 157.79 1233.07 159.626 1238.12 159.626H1299.82Z" fill="#DC241F"></path><path d="M1531.39 179H1489.43L1509.45 117.573C1510.09 115.645 1509.91 114.084 1508.99 112.707C1508.16 111.421 1506.78 110.779 1504.95 110.779H1443.24L1421.02 179H1379.06L1400.27 113.992C1401.01 111.513 1401.74 109.034 1402.29 106.463C1402.84 103.892 1402.84 101.505 1402.2 99.2096C1401.65 96.9141 1400.18 94.8941 1397.79 93.1496H1538.37C1544.15 93.1496 1548.38 95.1696 1551.13 99.3014C1553.89 103.433 1554.35 108.483 1552.51 114.268L1531.39 179Z" fill="#DC241F"></path><path d="M1703.37 179H1574.73C1569.04 179 1564.72 176.888 1561.97 172.756C1559.21 168.624 1558.84 163.666 1560.68 157.882L1575.92 111.054C1576.93 108.024 1577.39 104.994 1577.39 101.964C1577.39 98.5669 1575.74 95.6287 1572.53 93.1496H1713.01C1718.88 93.1496 1723.11 95.1696 1725.86 99.3014C1728.62 103.433 1729.08 108.483 1727.24 114.268L1723.38 125.929C1721.55 131.713 1717.87 136.58 1712.46 140.712C1707.04 144.843 1701.35 146.955 1695.56 146.955H1606.22L1603.74 154.576C1603.1 156.413 1603.28 157.974 1604.2 159.351C1605.03 160.728 1606.41 161.371 1608.24 161.371H1709.15L1703.37 179ZM1673.62 129.326C1675.45 129.326 1677.29 128.683 1679.04 127.306C1680.78 126.021 1681.97 124.46 1682.52 122.532L1684.18 117.573C1684.73 115.737 1684.64 114.176 1683.72 112.799C1682.89 111.421 1681.51 110.779 1679.68 110.779H1617.98L1611.92 129.326H1673.62Z" fill="#DC241F"></path><path d="M1532.1 72H1489.72C1488.15 72 1486.8 71.4452 1485.67 70.3114C1484.54 69.1777 1483.98 67.8268 1483.98 66.2347V47.4431C1483.98 46.8401 1483.93 46.237 1483.86 45.6098C1483.79 44.9826 1483.57 44.3796 1483.23 43.8006C1482.87 43.2458 1482.34 42.7392 1481.59 42.2809H1532.1V47.3708H1498C1497.3 47.3708 1496.72 47.612 1496.21 48.0944C1495.7 48.601 1495.46 49.2041 1495.46 49.9036V64.3772C1495.46 65.0768 1495.7 65.6557 1496.21 66.1623C1496.72 66.6689 1497.3 66.9101 1498 66.9101H1520.62V59.8422H1502.46V55.2348H1532.1V72Z" fill="#005BCB"></path><path d="M1578.01 72H1543.49C1541.97 72 1540.69 71.4452 1539.61 70.3597C1538.52 69.2741 1537.97 67.9715 1537.97 66.4518V49.4453H1549.01V65.5834C1549.01 66.0658 1549.18 66.4759 1549.55 66.8378C1549.88 67.1996 1550.29 67.3684 1550.78 67.3684H1566.99V49.4453H1580.42C1579.65 49.9036 1579.1 50.4102 1578.76 50.9892C1578.4 51.5922 1578.2 52.2194 1578.13 52.8707C1578.06 53.522 1578.01 54.1734 1578.01 54.8247V72Z" fill="#005BCB"></path><path d="M1595.31 47.3225H1584.28V42.2809H1595.31V47.3225ZM1595.31 72H1584.28V54.9212C1584.28 54.2457 1584.26 53.5703 1584.19 52.8949C1584.11 52.2435 1583.9 51.6164 1583.56 51.0133C1583.2 50.4343 1582.64 49.9036 1581.87 49.4453H1595.31V72Z" fill="#005BCB"></path><path d="M1641.26 72H1606.74C1605.22 72 1603.94 71.4452 1602.86 70.3597C1601.77 69.2741 1601.24 67.9715 1601.24 66.4518V54.9935C1601.24 53.4738 1601.77 52.1471 1602.86 51.0615C1603.94 49.976 1605.22 49.4453 1606.74 49.4453H1630.24V46.9848C1630.24 46.1888 1630.12 45.3927 1629.85 44.5967C1629.56 43.7041 1628.89 42.9322 1627.82 42.2809H1641.26V72ZM1630.24 67.3684V54.0769H1614.03C1613.54 54.0769 1613.13 54.2457 1612.8 54.6076C1612.43 54.9694 1612.26 55.3795 1612.26 55.8619V65.5834C1612.26 66.0658 1612.43 66.4759 1612.8 66.8378C1613.13 67.1996 1613.54 67.3684 1614.03 67.3684H1630.24Z" fill="#005BCB"></path><path d="M1686.8 72H1653.01C1651.49 72 1650.21 71.4452 1649.12 70.3597C1648.04 69.2741 1647.51 67.9715 1647.51 66.4518V54.1492C1647.51 53.3532 1647.39 52.5571 1647.12 51.7611C1646.83 50.8686 1646.16 50.0966 1645.1 49.4453H1682C1683.52 49.4453 1684.83 49.976 1685.91 51.0615C1687 52.1471 1687.53 53.4738 1687.53 54.9935V58.0571C1687.53 59.5768 1687 60.8553 1685.91 61.9409C1684.83 63.0264 1683.52 63.5812 1682 63.5812H1658.53V65.5834C1658.53 66.0658 1658.7 66.4759 1659.06 66.8378C1659.4 67.1996 1659.81 67.3684 1660.29 67.3684H1686.8V72ZM1674.74 58.9496C1675.22 58.9496 1675.63 58.7808 1676 58.4189C1676.33 58.0812 1676.5 57.6711 1676.5 57.1646V55.8619C1676.5 55.3795 1676.33 54.9694 1676 54.6076C1675.63 54.2457 1675.22 54.0769 1674.74 54.0769H1658.53V58.9496H1674.74Z" fill="#005BCB"></path><path d="M1726.1 72H1691.58V67.3684H1718.81C1719.3 67.3684 1719.71 67.1996 1720.07 66.8378C1720.41 66.4759 1720.58 66.0658 1720.58 65.5834V64.8114C1720.58 64.329 1720.41 63.9189 1720.07 63.5571C1719.71 63.2194 1719.3 63.0505 1718.81 63.0505H1697.08C1695.56 63.0505 1694.28 62.4957 1693.2 61.4102C1692.11 60.3246 1691.58 59.022 1691.58 57.5023V54.9935C1691.58 53.4738 1692.11 52.1471 1693.2 51.0615C1694.28 49.976 1695.56 49.4453 1697.08 49.4453H1730.59V54.0769H1704.36C1703.88 54.0769 1703.47 54.2457 1703.13 54.6076C1702.77 54.9694 1702.6 55.3795 1702.6 55.8619V56.6339C1702.6 57.1163 1702.77 57.5264 1703.13 57.8641C1703.47 58.226 1703.88 58.3948 1704.36 58.3948H1726.1C1727.62 58.3948 1728.9 58.9255 1729.98 60.011C1731.07 61.0966 1731.6 62.4233 1731.6 63.943V66.4518C1731.6 67.9715 1731.07 69.2741 1729.98 70.3597C1728.9 71.4452 1727.62 72 1726.1 72Z" fill="#005BCB"></path></svg>