<svg xmlns="http://www.w3.org/2000/svg" width="512" height="512" viewBox="0 0 512 512" fill="none"><rect width="512" height="512" fill="#428DFF"></rect><rect width="512" height="512" fill="white" fill-opacity="0.8"></rect><g clip-path="url(#clip0_62_704)"><path fill-rule="evenodd" clip-rule="evenodd" d="M339.793 182.829C345.642 182.829 350.414 178.058 350.414 172.208C350.414 166.357 345.642 161.586 339.793 161.586C333.942 161.586 329.171 166.357 329.171 172.208C329.171 178.057 333.942 182.829 339.793 182.829Z" stroke="#428DFF" stroke-width="10.3856" stroke-miterlimit="2.6131" stroke-linecap="round" stroke-linejoin="round"></path><path d="M307.158 224.595H279.287C269.128 224.595 260.814 232.908 260.814 243.068C260.814 253.228 269.127 261.541 279.287 261.541H333.121C343.281 261.541 351.595 269.854 351.595 280.014C351.595 290.174 343.281 298.487 333.121 298.487H258.36" stroke="#428DFF" stroke-width="10.3856" stroke-miterlimit="2.6131" stroke-linecap="round" stroke-linejoin="round"></path><path d="M231.92 336.779C253.068 326.614 261.973 301.229 251.808 280.08C241.643 258.932 216.258 250.028 195.109 260.193C173.961 270.357 165.057 295.742 175.222 316.891C185.386 338.039 210.771 346.944 231.92 336.779Z" stroke="black" stroke-width="10.3856" stroke-miterlimit="2.6131" stroke-linecap="round" stroke-linejoin="round"></path><path d="M190.045 336.977L158.462 368.56C154.332 372.691 147.572 372.691 143.441 368.56C139.31 364.429 139.31 357.67 143.441 353.539L175.024 321.956" stroke="black" stroke-width="10.3856" stroke-miterlimit="2.6131" stroke-linecap="round" stroke-linejoin="round"></path><path fill-rule="evenodd" clip-rule="evenodd" d="M339.793 140.343C322.194 140.343 307.928 154.609 307.928 172.208C307.928 189.854 328.77 211.952 339.793 224.595C350.815 211.952 371.657 189.854 371.657 172.208C371.657 154.609 357.391 140.343 339.793 140.343Z" stroke="black" stroke-width="10.3856" stroke-miterlimit="22.9256" stroke-linecap="round" stroke-linejoin="round"></path></g><defs><clipPath id="clip0_62_704"><rect width="241.701" height="241.701" fill="white" transform="translate(135.149 135.15)"></rect></clipPath></defs></svg>