<svg xmlns="http://www.w3.org/2000/svg" width="512" height="512" viewBox="0 0 512 512" fill="none"><rect width="512" height="512" fill="#428DFF"></rect><rect width="512" height="512" fill="white" fill-opacity="0.8"></rect><g clip-path="url(#clip0_62_710)"><path d="M282.867 171.294C265.774 171.294 251.917 157.437 251.917 140.344" stroke="#428DFF" stroke-width="10.3872" stroke-miterlimit="10" stroke-linejoin="round"></path><path d="M184.663 171.294C201.756 171.294 215.613 157.437 215.613 140.344" stroke="#428DFF" stroke-width="10.3872" stroke-miterlimit="10" stroke-linejoin="round"></path><path d="M322.206 196.688C305.751 192.06 296.163 174.969 300.791 158.514" stroke="#428DFF" stroke-width="10.3872" stroke-miterlimit="10" stroke-linejoin="round"></path><path d="M233.766 194.179V179.298" stroke="#428DFF" stroke-width="10.3872" stroke-miterlimit="10" stroke-linecap="round" stroke-linejoin="round"></path><path d="M155.899 350.883H304.153C315.627 350.883 324.927 341.582 324.927 330.108V320.666" stroke="#428DFF" stroke-width="10.3872" stroke-miterlimit="10" stroke-linejoin="round"></path><path d="M324.927 271.562V262.12C324.927 250.646 315.627 241.345 304.153 241.345H155.899" stroke="#428DFF" stroke-width="10.3872" stroke-miterlimit="10" stroke-linejoin="round"></path><path d="M315.08 222.026L330.585 166.893L282.868 153.474" stroke="black" stroke-width="10.3872" stroke-miterlimit="10" stroke-linejoin="round"></path><path d="M282.869 220.571V140.344H184.663V220.571" stroke="black" stroke-width="10.3872" stroke-miterlimit="10" stroke-linejoin="round"></path><path d="M345.702 271.563V262.12C345.702 239.173 327.1 220.571 304.153 220.571H176.674C165.2 220.571 155.899 229.872 155.899 241.346V350.883C155.899 362.357 165.2 371.658 176.674 371.658H304.153C327.1 371.658 345.702 353.056 345.702 330.109V320.666" stroke="black" stroke-width="10.3872" stroke-miterlimit="10" stroke-linejoin="round"></path><path d="M295.195 271.563H356.09V320.667H295.195C281.636 320.667 270.644 309.675 270.644 296.115C270.644 282.556 281.636 271.563 295.195 271.563Z" stroke="black" stroke-width="10.3872" stroke-miterlimit="10" stroke-linecap="round" stroke-linejoin="round"></path><circle cx="295.194" cy="296.115" r="5.19359" fill="black"></circle></g><defs><clipPath id="clip0_62_710"><rect width="241.701" height="241.701" fill="white" transform="translate(135.149 135.15)"></rect></clipPath></defs></svg>